<?xml version="1.0" encoding="UTF-8"?><svg id="Layer_2" xmlns="http://www.w3.org/2000/svg" xmlns:xlink="http://www.w3.org/1999/xlink" viewBox="0 0 788.37 620.2"><defs><style>.cls-1{fill:none;}.cls-2{stroke:#fff;stroke-miterlimit:10;stroke-width:1px;}.cls-2,.cls-3{fill:#fff;}.cls-4{clip-path:url(#clippath-1);}.cls-5{clip-path:url(#clippath-3);}.cls-6{clip-path:url(#clippath-2);}</style><clipPath id="clippath-1"><path class="cls-1" d="M228.51.5h148.68c33.63,0,53,37.99,33.45,65.36-35.47,49.66-50.88,127.79,45.16,234.94,14.98,16.71,14.18,42.4-2.21,57.74-9.98,9.34-20.61,21.73-29.71,37.78-2,3.53-3.5,7.31-4.41,11.27-5.42,23.63-28.47,119.18-53.72,150.75,0,0-27.72,39.06-61.99,50.12-4.01,1.29-8.2,1.91-12.41,1.91h-154.9c-5.43,0-10.8-1.07-15.81-3.15-28.93-12-125.15-58.66-120.47-147.14l5.21-98.61c.19-3.68.88-7.31,2.04-10.81C20.46,311.38,104.72,67.74,207.36,6.32c6.39-3.82,13.7-5.82,21.15-5.82Z"/></clipPath><clipPath id="clippath-2"><path class="cls-1" d="M493.93,11.86c-5.88-.12-43.43,1.12-64.97,50.41-1.14,2.6-2.42,5.14-3.86,7.58-4.85,8.22-16.79,32.02-19.8,71.06,0,0-3.96,29.9-.47,43.64.31,1.23.62,2.45.89,3.69,1.93,9.02,10.95,45.27,34.54,63.68,1.91,1.49,3.75,3.06,5.5,4.73l58.67,56.23c1.43,1.37,2.79,2.8,4.1,4.28,2.91,3.29,13.22,11.71,42.29,11.57,1.33,0,2.66.01,3.99.08l188.15,9.44c9.97.5,19.94-1.12,29.19-4.87,8.76-3.55,17.33-8.66,16.12-14.81V81.43c0-35.52-26.86-65.5-62.23-68.88-3-.29-6.03-.52-9.07-.69-34.65-1.89-204-.16-220.89.02-.72,0-1.43,0-2.14-.02Z"/></clipPath><clipPath id="clippath-3"><path class="cls-1" d="M397.5,608.36c-15.43,0-25.26-16.45-17.99-30.06,15.3-28.64,36.75-73.32,46.18-114.17,0,0,27.04-123.61,100.01-123.61,0,0,181.98-5.5,253.69,42.17,5.65,3.75,8.98,10.14,8.98,16.92v188.34c0,11.27-9.14,20.41-20.41,20.41h-370.46Z"/></clipPath></defs><g id="Layer_2-2"><path class="cls-3" d="M483.24,1.67c-6.1-.16-45,1.49-67.32,66.99-1.18,3.46-2.51,6.83-4,10.08-5.02,10.92-17.4,42.55-20.52,94.42,0,0-4.11,39.73-.49,57.99.32,1.63.65,3.26.92,4.91,2,11.99,11.35,60.15,35.8,84.61,1.98,1.98,3.89,4.06,5.7,6.29l60.8,74.71c1.48,1.82,2.89,3.72,4.25,5.69,3.02,4.37,13.7,15.56,43.82,15.37,1.38,0,2.76.01,4.14.1l194.98,12.54c10.33.66,20.66-1.49,30.25-6.46,9.08-4.72,17.95-11.51,16.7-19.68V94.1c0-47.2-27.84-87.04-64.48-91.53-3.11-.38-6.25-.69-9.4-.91-35.91-2.51-211.4-.21-228.91.03-.74.01-1.48,0-2.22-.02Z"/><path class="cls-2" d="M242.54.5h264.25s-231.75,111.51,0,338.95c0,0-40.98,17.61-66.42,68.96,0,0-25.44,121.79-53.7,158.47,0,0-31.09,45.49-67.83,52.82h-163.92s-131.11-46.93-125.73-152.59l5.38-105.66S128.36,55.3,242.54.5Z"/><path class="cls-3" d="M315.81,619.7s53.01-86.55,70.15-161.56c0,0,30-138.47,110.96-138.47,0,0,220.49-6.73,291.45,54.81v245.22h-472.56Z"/><g class="cls-4"><image width="1122" height="1402" transform="translate(-17.93 13.74) scale(.5)" xlink:href="../../../Documents/CMD/verdieping/PRAI/AI foto&apos;s/firefly/frowning.jpg"/></g><g class="cls-6"><image width="1122" height="1402" transform="translate(399.21 -8.01) scale(.35)" xlink:href="../../../Documents/CMD/verdieping/PRAI/AI foto&apos;s/chat got/2.1/ChatGPT Image Jun 15, 2026, 05_40_00 PM.png"/></g><g class="cls-5"><image width="1122" height="1402" transform="translate(376.93 297.32) scale(.37)" xlink:href="../../../Documents/CMD/verdieping/PRAI/AI foto&apos;s/chat got/3.2/ChatGPT Image Jun 15, 2026, 04_52_21 PM.png"/></g></g></svg>